<?xml version="1.0" encoding="UTF-8"?>
<svg width="144px" height="403px" viewBox="0 0 144 403" version="1.1" xmlns="http://www.w3.org/2000/svg" xmlns:xlink="http://www.w3.org/1999/xlink">
    <title>left_shoe_uploader</title>
    <g id="left_shoe_uploader" stroke="none" stroke-width="1" fill="none" fill-rule="evenodd">
        <path d="M86.6848441,4.99991633 C82.429635,4.97956538 77.9942591,5.88322214 75.3048226,6.41497484 C74.8509556,6.50471298 74.4412384,6.58564047 74.0829914,6.65320997 C68.6339364,7.68096411 65.8883919,8.86627487 61.7140346,11.1387111 C58.480015,12.8992464 56.6775121,14.5334165 54.9929467,16.0402786 C54.4451712,16.5302698 53.9080766,17.0098918 53.3522862,17.4806517 C50.7502757,19.6845804 49.0128054,21.917372 47.4563227,23.8859127 C47.0586037,24.3889226 46.6718441,24.8778021 46.2881903,25.3494855 C42.0549293,30.5540707 41.3041146,31.8070361 38.5901596,36.3352719 C38.1109189,37.1348854 37.5739087,38.0308692 36.9524459,39.0586675 C34.1197456,43.7434922 30.7536925,49.8527009 26.8502529,57.3839944 C21.3645637,68.2371857 17.8961497,75.3977353 16.4582751,78.8722373 C11.8662727,89.968422 9.87024132,98.9598489 9.08413219,103.272993 C7.33717677,112.858012 5.58777612,123.120258 5.28718417,133.026148 C5.26009177,133.918967 5.23423073,134.753726 5.20990305,135.538981 C4.96385458,143.480997 4.87452509,146.223071 5.28078653,153.101624 C5.52843817,157.294699 5.67751004,158.451941 5.92563301,160.35342 C6.12730123,161.898896 6.38911892,163.903548 6.8013654,168.137323 C7.39786532,174.263384 8.68798054,180.770326 10.7601042,188.080801 C13.1520154,200.373772 14.5870838,209.740796 15.0863043,216.179417 C15.4946326,221.445768 15.6015368,223.608782 15.7308365,226.222555 C15.8346908,228.321955 15.9532826,230.719048 16.2623235,235.343768 C16.5915196,240.270104 16.8591079,243.754529 17.0984285,246.871281 C17.3627557,250.313702 17.5929001,253.312986 17.833117,257.281993 C18.1414947,262.377194 18.378794,268.751064 18.5434983,276.403674 L18.5434983,308.052144 C18.5434983,314.443087 20.0862408,326.769935 21.9108243,336.185551 C21.981831,336.551975 22.0601964,336.973082 22.1478269,337.444341 C23.176222,342.974837 25.5540636,356.078309 33.3044667,367.923052 C41.3409941,380.205071 55.3311531,391.244993 59.8373826,393.21957 C68.7773653,397.136965 74.8993559,397.892079 79.3707594,397.995316 C83.5565104,398.091958 90.8544219,396.900055 94.6155862,394.79902 C94.97055,394.600733 95.5104694,394.334664 96.2073643,393.998158 C99.9194971,392.205701 109.500507,387.654643 116.217798,377.251664 C122.842238,366.992482 125.980466,348.921026 126.21921,345.702202 C126.36604,343.722588 126.586327,341.346679 126.82585,338.767658 C127.48409,331.680179 128.314707,322.986521 128.021346,317.078085 C127.863169,313.89231 127.824842,312.061899 127.788706,310.330992 C127.731958,307.612695 127.679339,305.150276 127.137111,297.658039 C126.523341,289.177252 126.121588,282.136565 125.753573,275.684997 C125.586432,272.754883 125.426281,269.947029 125.256157,267.180741 C124.82291,260.135984 125.397161,243.410003 125.872951,229.893552 C126.000268,226.276679 126.11939,222.893237 126.207845,219.997964 C126.35736,215.104061 126.396179,211.675128 126.429569,208.734877 C126.489785,203.432307 126.533455,199.673614 127.139834,192.055814 C127.905999,182.430657 128.464164,179.316626 129.416701,173.988706 C129.647599,172.697205 129.902654,171.270812 130.191057,169.575858 C131.62102,161.171926 131.624374,161.14985 132.918234,152.644459 C133.61404,148.070509 133.84142,146.023552 134.104107,143.657876 C134.330028,141.623301 134.581186,139.361668 135.15492,135.193523 C135.681917,131.364921 136.08863,129.123769 136.448867,127.139915 C136.930374,124.488217 137.321837,122.328073 137.825169,117.024769 C137.939301,115.822231 138.043862,114.7411 138.139438,113.752888 C138.770979,107.223061 139,104.885441 139,97.9639602 C139,90.0607257 138.59149,80.1651633 136.596362,70.0273423 C136.039282,67.1966552 135.65093,65.0882843 135.328267,63.3362793 C134.483371,58.748637 134.108773,56.7167049 132.179409,50.0538089 C129.664302,41.3680973 128.910279,39.610537 126.100286,33.0607547 C125.955939,32.7242968 125.806354,32.37563 125.651048,32.0132737 C122.687465,25.0986806 118.234922,18.5690733 114.28256,15.0494533 C112.579994,13.5332997 107.106981,9.29676891 100.685548,6.97627702 C98.8547058,6.31467162 92.8385843,5.03551685 86.6848441,4.99991633 Z" id="OUTLINE" stroke="#F0AD4E" stroke-width="10"></path>
    </g>
</svg>