<?xml version="1.0" encoding="UTF-8"?>
<svg width="336px" height="423px" viewBox="0 0 336 423" version="1.1" xmlns="http://www.w3.org/2000/svg" xmlns:xlink="http://www.w3.org/1999/xlink">
    <title>touch_area_shoe</title>
    <g id="touch_area_shoe" stroke="none" stroke-width="1" fill="none" fill-rule="evenodd">
        <path d="M98.7123232,12.2499958 C94.1010594,12.2279394 89.2959692,13.179332 86.3834934,13.7551838 C85.9448319,13.8419155 85.5488548,13.9202037 85.2026096,13.9855095 C79.1425931,15.128498 76.0861389,16.4391613 71.4429431,18.9668239 C67.7835562,20.9589205 65.7330732,22.7941905 63.8261155,24.4999848 C63.3105415,24.9611714 62.8053741,25.4130083 62.2822527,25.8560974 C59.398778,28.2984289 57.4559903,30.7573114 55.7303137,32.9398379 C55.3465273,33.4252267 54.9734354,33.8970763 54.603221,34.3522366 C50.1559302,39.8199608 49.3670567,41.1362083 46.5158832,45.8933932 C46.0394365,46.6883448 45.5055646,47.5791096 44.8877249,48.6009157 C42.0070695,53.3650507 38.5809657,59.5795172 34.6092107,67.2441997 C29.042682,78.2579554 25.5287506,85.5291742 24.0692619,89.0559049 C19.2959686,100.590164 17.2282103,109.938127 16.411113,114.421294 C14.6226368,124.234125 12.8470827,134.741512 12.5393696,144.882076 C12.5123097,145.773824 12.4864794,146.607581 12.4621809,147.391894 C12.2101448,155.527183 12.1229106,158.335884 12.5390497,165.38168 C12.7981351,169.768344 12.9559902,170.978802 13.2155641,172.968034 C13.4132346,174.482874 13.66965,176.447812 14.0737241,180.597658 C14.6960271,186.988716 16.0358277,193.778459 18.0975456,200.988021 C20.4435513,213.045065 21.8608589,222.231302 22.3505181,228.546607 C22.7534594,233.743481 22.8590439,235.877954 22.9866378,238.457244 C23.091426,240.575522 23.2110737,242.99417 23.5228934,247.660474 C23.8534303,252.606875 24.1220745,256.105494 24.3623698,259.234941 C24.6247498,262.652003 24.8533455,265.629182 25.0917929,269.568953 C25.3964683,274.602982 25.6303758,280.897381 25.7934401,288.452156 L25.7934983,320.052144 C25.7934983,326.647446 27.3643841,339.371158 29.247574,349.089208 C29.31659,349.44536 29.3927043,349.85467 29.4778781,350.312717 C30.5658152,356.163419 33.136106,370.001709 41.3297471,382.523841 C49.9719554,395.731507 65.0969368,407.451996 69.9309802,409.570217 C79.6928674,413.847761 86.3821508,414.631404 91.2611197,414.744051 C96.1258059,414.856367 104.572874,413.380978 108.932072,410.945873 C109.230679,410.779067 109.686627,410.558638 110.27279,410.275601 C114.353263,408.305285 124.834356,403.2481 132.208212,391.828308 C139.300524,380.84454 142.700448,361.501658 142.956198,358.05355 C143.101167,356.099022 143.319009,353.753253 143.555496,351.206918 C144.23425,343.898561 145.067961,334.934223 144.765502,328.842532 C144.610523,325.721167 144.573077,323.927761 144.537672,322.23185 C144.479832,319.461292 144.427375,316.951483 143.87472,309.315169 C143.262971,300.862312 142.862667,293.844804 142.495864,287.414484 C142.328309,284.477114 142.167746,281.662308 141.9972,278.889171 C141.569277,271.930981 142.150084,255.410534 142.620011,242.060653 C142.747611,238.435721 142.866978,235.044739 142.955629,232.143015 C143.106354,227.209522 143.145602,223.752852 143.179262,220.788815 C143.238313,215.588946 143.28022,211.903009 143.874857,204.432723 C144.621545,195.052246 145.164232,192.017184 146.092562,186.824666 C146.325509,185.521701 146.58279,184.082639 146.873753,182.372638 C148.310677,173.927798 148.314051,173.905615 149.61421,165.358822 C150.324736,160.688103 150.556847,158.597826 150.825091,156.182099 C151.047716,154.177209 151.295187,151.948571 151.860551,147.841241 C152.374402,144.108141 152.77119,141.92293 153.122441,139.988564 C153.622986,137.232026 154.030684,134.986583 154.553919,129.473571 C154.667756,128.274145 154.772048,127.195812 154.867377,126.210156 C155.517208,119.491217 155.75,117.085776 155.75,109.96396 C155.75,101.800675 155.317597,91.5807971 153.256966,81.1101334 C152.704622,78.3035139 152.319625,76.2130594 151.999705,74.4759507 C151.125501,69.7291719 150.738269,67.6266713 148.741974,60.7326342 C146.145225,51.7649811 145.36672,49.9503717 142.465515,43.1879812 C142.321382,42.8520235 142.172019,42.5038752 142.016944,42.1420575 C138.751175,34.5224075 133.79087,27.3752764 129.441501,23.5021171 C127.545418,21.8136351 121.451551,17.0933905 114.299869,14.5090108 C112.261475,13.772403 105.572393,12.2896826 98.7123232,12.2499958 Z" id="L_OUTLINE" stroke="#808080" stroke-width="0.5"></path>
        <path d="M88.5802271,111.026339 C93.3192455,111.63088 99.1138018,115.625613 103.089851,118.773436 C107.065901,121.921258 110.56289,126.016258 112.331705,129.945211 C112.677279,130.712811 114.03757,133.488207 115.055252,138.342551 C117.510237,150.052822 121.944398,177.080628 127.608378,209.182088 C133.272359,241.283549 134.20054,262.065382 135.912766,273.933047 C136.650816,279.048567 137.765394,294.490761 139.42855,313.806661 C140.396606,325.04967 140.14145,338.577193 135.912766,354.076693 C134.227596,360.253389 128.78266,372.627456 120,376.807606 C106.743883,383.116918 91.7398551,380.530624 88.5802271,380.178081 C83.3151896,379.590623 77.7921197,377.829764 75.2530079,376.807606 C72.6669652,375.766555 68.1809455,373.397523 64.5574199,370.290001 C61.0735486,367.302245 58.4376112,363.59989 56.5742836,361.302615 C54.9869504,359.34561 50.5313527,353.866182 47.0029066,343.799541 C44.8980665,337.794442 42.7873918,331.21198 41.5499667,320.923084 C40.3125416,310.634189 41.5499667,298.828659 41.5499667,283.039969 C41.5499667,267.251279 41.0626873,224.466463 41.5499667,204.390211 C42.0372462,184.31396 41.8404453,176.826508 44.421676,164.723556 C47.0029066,152.620603 52.3740184,140.432032 56.5742836,134.022161 C60.7745488,127.612289 67.3059319,121.904657 72.0089727,118.292621 C79.8555944,112.266248 86.6048601,110.774348 88.5802271,111.026339 Z" id="L_OUTLINE" stroke="#808080" stroke-width="0.5"></path>
        <path d="M114,135 C97.9036151,138.561804 85.8591305,142.112493 77.8665462,145.652066 C69.8739619,149.191639 58.5851132,155.974284 44,166" id="L_OUTLINE" stroke="#808080" stroke-width="0.5"></path>
        <path d="M128,209 C107.216145,212.987518 91.6064049,217.987456 81.1707783,223.999813 C75.1246476,227.483217 62.4144921,234.406512 54.6085561,241.584783 C50.8304787,245.05907 46.6276266,248.864142 42,253" id="L_OUTLINE" stroke="#808080" stroke-width="0.5"></path>
        <path d="M41.4286389,293.318534 C41.9065787,289.781818 43.5040601,286.930443 46.2210833,284.76441 C50.477128,281.371457 58.4635532,281.371457 62.8943597,281.371457 C66.6594335,281.371457 79.1957911,281.044549 88.9321792,281.698629 C98.6685674,282.35271 103.301217,282.35271 115.713282,283.877342 C122.533628,284.715117 130.041889,286.054253 133.440994,289.446057 C135.690248,291.690481 137.21207,294.185297 138.006459,296.930506" id="L_OUTLINE" stroke="#808080" stroke-width="0.5"></path>
        <circle id="L_TOP_LIGHT" fill="#BBBBBB" cx="89" cy="102" r="2"></circle>
        <circle id="L_TOP_EXT_LIGHT" stroke="#808080" fill="#BBBBBB" cx="51" cy="128" r="2"></circle>
        <circle id="L_EXT_LIGHT" fill="#BBBBBB" cx="35" cy="166" r="2"></circle>
        <circle id="L_TOP_INT_LIGHT" stroke="#808080" fill="#BBBBBB" cx="118" cy="122" r="2"></circle>
        <circle id="L_INT_LIGHT" fill="#BBBBBB" cx="127" cy="153" r="2"></circle>
        <path d="M56,32.5954699 L75.7663919,115 C78.4080059,113.466938 80.3134423,112.454861 81.4827009,111.96377 C83.4858726,111.122432 85.1688409,110.64026 86.9651457,110.517735 C90.334215,110.287931 94.2445632,111.78202 98.6961904,115 L133,27.1181114 C129.575742,23.5350665 126.96995,21.1092263 125.182625,19.8405908 C121.27804,17.0691346 116.795953,15.4785198 114.589924,14.5789384 C104.7255,10.5563941 96.6067636,12.3334536 90.7237259,12.7519407 C84.784059,13.1744561 75.9655069,15.6159758 68.060875,20.9939009 C65.1580078,22.9688698 61.1377161,26.8360595 56,32.5954699 Z" id="L_TOP_AREA"></path>
        <path d="M99,115.622931 L133.170015,28 C136.578769,32.5729636 138.924224,36.2033178 140.206379,38.8910624 C146.438362,51.9549836 149.840974,64.7868287 151.697376,73.8303267 C153.131074,80.8146121 155.602993,90.0840001 155.969078,102.183106 C156.138559,107.784429 155.611351,117.510451 154.387456,131.361173 L115.692691,140 C114.427347,135.222621 113.43724,131.991049 112.72237,130.305285 C111.628949,127.726841 110.179194,126.171569 109.202192,124.74481 C107.267057,121.918847 103.866326,118.87822 99,115.622931 Z" id="L_TOP_INT_AREA"></path>
        <path d="M116,139.701008 L155,131 C152.812509,145.990753 151.133209,157.292806 149.962101,164.906157 C148.790992,172.519509 147.358747,180.813782 145.665366,189.788976 L124.720504,191 L116,139.701008 Z" id="L_INT_AREA"></path>
        <path d="M76,115.116544 L56.2431712,33 C52.6111536,37.6116027 49.8835059,41.32244 48.0602282,44.132512 C40.8928385,55.1790356 34.4712418,67.4356261 30.0297265,77.4070523 C26.9168407,84.3956382 23.3159293,91.5267021 20.782782,99.6916996 C19.1425568,104.978575 17.2149628,113.612343 15,125.593003 L48.8126317,150 C52.6856011,140.415459 56.192627,133.608066 59.3337092,129.577819 C62.4747915,125.547572 68.0302218,120.727147 76,115.116544 Z" id="L_TOP_EXT_AREA"></path>
        <path d="M49,150.364194 L15.1435125,126 C13.1890466,139.928433 12.5711499,152.307059 13.2898223,163.135877 C13.6837698,169.071803 14.0145114,176.638717 15.4779332,185.655092 C16.063229,189.261193 17.5360764,194.435374 19.1434316,201.742677 C19.544176,203.564528 20.091258,206.650302 20.7846775,211 L41.9728057,211 C41.9847577,193.880227 42.3947631,181.582043 43.2028219,174.105449 C44.0108807,166.628854 45.9432734,158.715103 49,150.364194 Z" id="L_EXT_AREA"></path>
        <path d="M265.712323,10.2499958 C261.101059,10.2279394 256.295969,11.179332 253.383493,11.7551838 C252.944832,11.8419155 252.548855,11.9202037 252.20261,11.9855095 C246.142593,13.128498 243.086139,14.4391613 238.442943,16.9668239 C234.783556,18.9589205 232.733073,20.7941905 230.826116,22.4999848 C230.310541,22.9611714 229.805374,23.4130083 229.282253,23.8560974 C226.398778,26.2984289 224.45599,28.7573114 222.730314,30.9398379 C222.346527,31.4252267 221.973435,31.8970763 221.603221,32.3522366 C217.15593,37.8199608 216.367057,39.1362083 213.515883,43.8933932 C213.039437,44.6883448 212.505565,45.5791096 211.887725,46.6009157 C209.007069,51.3650507 205.580966,57.5795172 201.609211,65.2441997 C196.042682,76.2579554 192.528751,83.5291742 191.069262,87.0559049 C186.295969,98.5901637 184.22821,107.938127 183.411113,112.421294 C181.622637,122.234125 179.847083,132.741512 179.53937,142.882076 C179.51231,143.773824 179.486479,144.607581 179.462181,145.391894 C179.210145,153.527183 179.122911,156.335884 179.53905,163.38168 C179.798135,167.768344 179.95599,168.978802 180.215564,170.968034 C180.413235,172.482874 180.66965,174.447812 181.073724,178.597658 C181.696027,184.988716 183.035828,191.778459 185.097546,198.988021 C187.443551,211.045065 188.860859,220.231302 189.350518,226.546607 C189.753459,231.743481 189.859044,233.877954 189.986638,236.457244 C190.091426,238.575522 190.211074,240.99417 190.522893,245.660474 C190.85343,250.606875 191.122074,254.105494 191.36237,257.234941 C191.62475,260.652003 191.853345,263.629182 192.091793,267.568953 C192.396468,272.602982 192.630376,278.897381 192.79344,286.452156 L192.793498,318.052144 C192.793498,324.647446 194.364384,337.371158 196.247574,347.089208 C196.31659,347.44536 196.392704,347.85467 196.477878,348.312717 C197.565815,354.163419 200.136106,368.001709 208.329747,380.523841 C216.971955,393.731507 232.096937,405.451996 236.93098,407.570217 C246.692867,411.847761 253.382151,412.631404 258.26112,412.744051 C263.125806,412.856367 271.572874,411.380978 275.932072,408.945873 C276.230679,408.779067 276.686627,408.558638 277.27279,408.275601 C281.353263,406.305285 291.834356,401.2481 299.208212,389.828308 C306.300524,378.84454 309.700448,359.501658 309.956198,356.05355 C310.101167,354.099022 310.319009,351.753253 310.555496,349.206918 C311.23425,341.898561 312.067961,332.934223 311.765502,326.842532 C311.610523,323.721167 311.573077,321.927761 311.537672,320.23185 C311.479832,317.461292 311.427375,314.951483 310.87472,307.315169 C310.262971,298.862312 309.862667,291.844804 309.495864,285.414484 C309.328309,282.477114 309.167746,279.662308 308.9972,276.889171 C308.569277,269.930981 309.150084,253.410534 309.620011,240.060653 C309.747611,236.435721 309.866978,233.044739 309.955629,230.143015 C310.106354,225.209522 310.145602,221.752852 310.179262,218.788815 C310.238313,213.588946 310.28022,209.903009 310.874857,202.432723 C311.621545,193.052246 312.164232,190.017184 313.092562,184.824666 C313.325509,183.521701 313.58279,182.082639 313.873753,180.372638 C315.310677,171.927798 315.314051,171.905615 316.61421,163.358822 C317.324736,158.688103 317.556847,156.597826 317.825091,154.182099 C318.047716,152.177209 318.295187,149.948571 318.860551,145.841241 C319.374402,142.108141 319.77119,139.92293 320.122441,137.988564 C320.622986,135.232026 321.030684,132.986583 321.553919,127.473571 C321.667756,126.274145 321.772048,125.195812 321.867377,124.210156 C322.517208,117.491217 322.75,115.085776 322.75,107.96396 C322.75,99.8006747 322.317597,89.5807971 320.256966,79.1101334 C319.704622,76.3035139 319.319625,74.2130594 318.999705,72.4759507 C318.125501,67.7291719 317.738269,65.6266713 315.741974,58.7326342 C313.145225,49.7649811 312.36672,47.9503717 309.465515,41.1879812 C309.321382,40.8520235 309.172019,40.5038752 309.016944,40.1420575 C305.751175,32.5224075 300.79087,25.3752764 296.441501,21.5021171 C294.545418,19.8136351 288.451551,15.0933905 281.299869,12.5090108 C279.261475,11.772403 272.572393,10.2896826 265.712323,10.2499958 Z" id="R_OUTLINE" stroke="#808080" stroke-width="0.5" transform="translate(251.000000, 211.500000) scale(-1, 1) translate(-251.000000, -211.500000) "></path>
        <path d="M242.684887,109.026339 C247.423905,109.63088 253.218461,113.625613 257.194511,116.773436 C261.17056,119.921258 264.66755,124.016258 266.436365,127.945211 C266.781938,128.712811 268.142229,131.488207 269.159912,136.342551 C271.614896,148.052822 276.049058,175.080628 281.713038,207.182088 C287.377018,239.283549 288.3052,260.065382 290.017426,271.933047 C290.755475,277.048567 291.870054,292.490761 293.533209,311.806661 C294.501266,323.04967 294.24611,336.577193 290.017426,352.076693 C288.332255,358.253389 282.88732,370.627456 274.104659,374.807606 C260.848542,381.116918 245.844515,378.530624 242.684887,378.178081 C237.419849,377.590623 231.896779,375.829764 229.357667,374.807606 C226.771625,373.766555 222.285605,371.397523 218.662079,368.290001 C215.178208,365.302245 212.542271,361.59989 210.678943,359.302615 C209.09161,357.34561 204.636012,351.866182 201.107566,341.799541 C199.002726,335.794442 196.892051,329.21198 195.654626,318.923084 C194.417201,308.634189 195.654626,296.828659 195.654626,281.039969 C195.654626,265.251279 195.167347,222.466463 195.654626,202.390211 C196.141906,182.31396 195.945105,174.826508 198.526335,162.723556 C201.107566,150.620603 206.478678,138.432032 210.678943,132.022161 C214.879208,125.612289 221.410591,119.904657 226.113632,116.292621 C233.960254,110.266248 240.70952,108.774348 242.684887,109.026339 Z" id="R_OUTLINE" stroke="#808080" stroke-width="0.5" transform="translate(244.552330, 244.000000) scale(-1, 1) translate(-244.552330, -244.000000) "></path>
        <path d="M291,133 C274.903615,136.561804 262.859131,140.112493 254.866546,143.652066 C246.873962,147.191639 235.585113,153.974284 221,164" id="R_OUTLINE" stroke="#808080" stroke-width="0.5" transform="translate(256.000000, 148.500000) scale(-1, 1) translate(-256.000000, -148.500000) "></path>
        <path d="M293,207 C272.216145,210.987518 256.606405,215.987456 246.170778,221.999813 C240.124648,225.483217 227.414492,232.406512 219.608556,239.584783 C215.830479,243.05907 211.627627,246.864142 207,251" id="R_OUTLINE" stroke="#808080" stroke-width="0.5" transform="translate(250.000000, 229.000000) scale(-1, 1) translate(-250.000000, -229.000000) "></path>
        <path d="M196.993541,291.318534 C197.471481,287.781818 199.068963,284.930443 201.785986,282.76441 C206.04203,279.371457 214.028456,279.371457 218.459262,279.371457 C222.224336,279.371457 234.760694,279.044549 244.497082,279.698629 C254.23347,280.35271 258.866119,280.35271 271.278184,281.877342 C278.09853,282.715117 285.606791,284.054253 289.005896,287.446057 C291.255151,289.690481 292.776972,292.185297 293.571361,294.930506" id="R_OUTLINE" stroke="#808080" stroke-width="0.5" transform="translate(245.282451, 287.110134) scale(-1, 1) translate(-245.282451, -287.110134) "></path>
        <circle id="R_TOP_LIGHT" fill="#BBBBBB" transform="translate(246.000000, 100.000000) scale(-1, 1) translate(-246.000000, -100.000000) " cx="246" cy="100" r="2"></circle>
        <circle id="R_TOP_EXT_LIGHT" stroke="#808080" fill="#BBBBBB" transform="translate(284.000000, 126.000000) scale(-1, 1) translate(-284.000000, -126.000000) " cx="284" cy="126" r="2"></circle>
        <circle id="R_EXT_LIGHT" fill="#BBBBBB" transform="translate(300.000000, 164.000000) scale(-1, 1) translate(-300.000000, -164.000000) " cx="300" cy="164" r="2"></circle>
        <circle id="R_TOP_INT_LIGHT" stroke="#808080" fill="#BBBBBB" transform="translate(217.000000, 120.000000) scale(-1, 1) translate(-217.000000, -120.000000) " cx="217" cy="120" r="2"></circle>
        <circle id="R_INT_LIGHT" fill="#BBBBBB" transform="translate(208.000000, 151.000000) scale(-1, 1) translate(-208.000000, -151.000000) " cx="208" cy="151" r="2"></circle>
        <path d="M202,30.5954699 L221.766392,113 C224.408006,111.466938 226.313442,110.454861 227.482701,109.96377 C229.485873,109.122432 231.168841,108.64026 232.965146,108.517735 C236.334215,108.287931 240.244563,109.78202 244.69619,113 L279,25.1181114 C275.575742,21.5350665 272.96995,19.1092263 271.182625,17.8405908 C267.27804,15.0691346 262.795953,13.4785198 260.589924,12.5789384 C250.7255,8.55639414 242.606764,10.3334536 236.723726,10.7519407 C230.784059,11.1744561 221.965507,13.6159758 214.060875,18.9939009 C211.158008,20.9688698 207.137716,24.8360595 202,30.5954699 Z" id="R_TOP_AREA" transform="translate(240.500000, 61.500000) scale(-1, 1) translate(-240.500000, -61.500000) "></path>
        <path d="M179,113.622931 L213.170015,26 C216.578769,30.5729636 218.924224,34.2033178 220.206379,36.8910624 C226.438362,49.9549836 229.840974,62.7868287 231.697376,71.8303267 C233.131074,78.8146121 235.602993,88.0840001 235.969078,100.183106 C236.138559,105.784429 235.611351,115.510451 234.387456,129.361173 L195.692691,138 C194.427347,133.222621 193.43724,129.991049 192.72237,128.305285 C191.628949,125.726841 190.179194,124.171569 189.202192,122.74481 C187.267057,119.918847 183.866326,116.87822 179,113.622931 Z" id="R_TOP_INT_AREA" transform="translate(207.500000, 82.000000) scale(-1, 1) translate(-207.500000, -82.000000) "></path>
        <path d="M180,137.701008 L219,129 C216.812509,143.990753 215.133209,155.292806 213.962101,162.906157 C212.790992,170.519509 211.358747,178.813782 209.665366,187.788976 L188.720504,189 L180,137.701008 Z" id="R_INT_AREA" transform="translate(199.500000, 159.000000) scale(-1, 1) translate(-199.500000, -159.000000) "></path>
        <path d="M320,113.116544 L300.243171,31 C296.611154,35.6116027 293.883506,39.32244 292.060228,42.132512 C284.892839,53.1790356 278.471242,65.4356261 274.029726,75.4070523 C270.916841,82.3956382 267.315929,89.5267021 264.782782,97.6916996 C263.142557,102.978575 261.214963,111.612343 259,123.593003 L292.812632,148 C296.685601,138.415459 300.192627,131.608066 303.333709,127.577819 C306.474792,123.547572 312.030222,118.727147 320,113.116544 Z" id="R_TOP_EXT_AREA" transform="translate(289.500000, 89.500000) scale(-1, 1) translate(-289.500000, -89.500000) "></path>
        <path d="M322,148.364194 L288.143512,124 C286.189047,137.928433 285.57115,150.307059 286.289822,161.135877 C286.68377,167.071803 287.014511,174.638717 288.477933,183.655092 C289.063229,187.261193 290.536076,192.435374 292.143432,199.742677 C292.544176,201.564528 293.091258,204.650302 293.784678,209 L314.972806,209 C314.984758,191.880227 315.394763,179.582043 316.202822,172.105449 C317.010881,164.628854 318.943273,156.715103 322,148.364194 Z" id="R_EXT_AREA" transform="translate(304.000000, 166.500000) scale(-1, 1) translate(-304.000000, -166.500000) "></path>
    </g>
</svg>