<?xml version="1.0" encoding="UTF-8"?>
<svg width="313px" height="403px" viewBox="0 0 313 403" version="1.1" xmlns="http://www.w3.org/2000/svg" xmlns:xlink="http://www.w3.org/1999/xlink">
    <title>uploader_pair_shoes</title>
    <g id="uploader_pair_shoes" stroke="none" stroke-width="1" fill="none" fill-rule="evenodd">
        <path d="M86.7050919,1.4999749 C82.1875266,1.4783673 77.4797297,2.41719782 74.6259485,2.98144461 C74.1832855,3.06896749 73.7836926,3.14795018 73.434289,3.2138517 C67.5350519,4.32651536 64.560416,5.60419122 60.0405987,8.06468892 C56.4931506,9.99584836 54.5079255,11.7781973 52.6594921,13.4316411 C52.135444,13.9004078 51.6218748,14.3595566 51.0901562,14.8099275 C48.2807511,17.1895214 46.3919942,19.5889063 44.7108424,21.7151207 C44.3233895,22.2051467 43.9467008,22.6814778 43.5729498,23.1409863 C39.1819826,28.5394634 38.4031246,29.8390577 35.5880612,34.5359928 C35.1108793,35.3321713 34.5761815,36.2243095 33.9573883,37.2476925 C31.0895996,41.9905479 27.6796409,48.1766578 23.726297,55.8053294 C18.1800193,66.7788055 14.6780662,74.0209008 13.2242654,77.5338871 C8.49868025,88.9528633 6.44979741,98.2070011 5.64085492,102.645425 C3.8633052,112.398306 2.09463359,122.841182 1.78879446,132.91999 C1.76172602,133.81202 1.73588766,134.64604 1.71158149,135.430601 C1.46112103,143.515029 1.37333543,146.306197 1.78687517,153.307981 C2.04295166,157.643701 2.19849545,158.840154 2.45505591,160.806294 C2.65377848,162.329195 2.91161549,164.304585 3.31784025,168.476517 C3.93335296,174.797839 5.26007847,181.513161 7.3245347,188.749278 C9.68262079,200.868409 11.1046023,210.102221 11.5967777,216.449978 C12.0011366,221.665136 12.1070684,223.807119 12.2351111,226.395484 C12.3396536,228.508794 12.4590234,230.921769 12.7701119,235.57713 C13.1002959,240.518251 13.3686622,244.013135 13.6087011,247.139241 C13.8715935,250.562977 14.1005967,253.545973 14.3395098,257.493437 C14.645186,262.544003 14.8799998,268.859974 15.0434983,276.441371 L15.0434983,308.052144 C15.0434983,314.593667 16.6069779,327.212941 18.4747452,336.851404 C18.544285,337.210258 18.6209917,337.622673 18.706812,338.084197 C19.7790801,343.850634 22.2987265,357.495551 30.3757259,369.839423 C38.8585446,382.803497 53.6848884,394.34489 58.432665,396.42531 C67.9782615,400.608078 74.5182574,401.384213 79.2899722,401.494384 C83.9759913,401.602575 92.1206495,400.201787 96.3224704,397.854596 C96.6359085,397.679506 97.1139543,397.447066 97.7292569,397.149958 C101.712798,395.226447 111.957028,390.302453 119.158103,379.150244 C126.127291,368.357156 129.458347,349.34886 129.709622,345.96109 C129.855081,343.99996 130.073566,341.64626 130.310852,339.091323 C130.984208,331.841092 131.817105,322.947985 131.51704,316.90452 C131.361219,313.766204 131.323541,311.96306 131.287944,310.25794 C131.230391,307.501135 131.177892,305.003797 130.627981,297.405398 C130.0157,288.945191 129.615015,281.921583 129.247893,275.485671 C129.080446,272.550211 128.919992,269.737235 128.749557,266.9659 C128.320233,259.984929 128.899315,243.410394 129.370785,230.016679 C129.498311,226.393868 129.617613,223.00487 129.706212,220.104843 C129.856619,215.18177 129.895754,211.732398 129.929343,208.77462 C129.9887,203.547725 130.031071,199.842642 130.628798,192.333537 C131.380612,182.88867 131.927372,179.832827 132.862072,174.604677 C133.09448,173.304728 133.351175,171.869 133.641465,170.162959 C135.076557,161.728884 135.079925,161.70673 136.378427,153.170832 C137.085079,148.525578 137.315945,146.446701 137.582727,144.044146 C137.806219,142.031443 138.054661,139.794123 138.622227,135.670789 C139.139538,131.912557 139.538937,129.712624 139.892553,127.765235 C140.388088,125.036287 140.791514,122.813291 141.309511,117.355465 C141.423426,116.15522 141.527789,115.076151 141.623183,114.089822 C142.2682,107.42065 142.5,105.033056 142.5,97.9639602 C142.5,89.8691092 142.073885,79.7345777 140.030491,69.3515041 C139.476901,66.5385511 139.091021,64.4433817 138.770379,62.702353 C137.903888,57.9974522 137.519981,55.9135222 135.541299,49.0803118 C132.966035,40.1868538 132.193972,38.3872573 129.31677,31.6808163 C129.172581,31.344727 129.02316,30.9964422 128.868024,30.6344828 C125.681777,23.2003741 120.855094,16.2157493 116.610201,12.4356266 C114.765043,10.7924942 108.834559,6.19954275 101.875048,3.6846072 C99.8912723,2.96773682 93.3792856,1.53858633 86.7050919,1.4999749 Z" id="OUTLINE" stroke="#F0AD4E" stroke-width="3"></path>
        <path d="M255.705092,1.4999749 C251.187527,1.4783673 246.47973,2.41719782 243.625948,2.98144461 C243.183285,3.06896749 242.783693,3.14795018 242.434289,3.2138517 C236.535052,4.32651536 233.560416,5.60419122 229.040599,8.06468892 C225.493151,9.99584836 223.507926,11.7781973 221.659492,13.4316411 C221.135444,13.9004078 220.621875,14.3595566 220.090156,14.8099275 C217.280751,17.1895214 215.391994,19.5889063 213.710842,21.7151207 C213.32339,22.2051467 212.946701,22.6814778 212.57295,23.1409863 C208.181983,28.5394634 207.403125,29.8390577 204.588061,34.5359928 C204.110879,35.3321713 203.576181,36.2243095 202.957388,37.2476925 C200.0896,41.9905479 196.679641,48.1766578 192.726297,55.8053294 C187.180019,66.7788055 183.678066,74.0209008 182.224265,77.5338871 C177.49868,88.9528633 175.449797,98.2070011 174.640855,102.645425 C172.863305,112.398306 171.094634,122.841182 170.788794,132.91999 C170.761726,133.81202 170.735888,134.64604 170.711581,135.430601 C170.461121,143.515029 170.373335,146.306197 170.786875,153.307981 C171.042952,157.643701 171.198495,158.840154 171.455056,160.806294 C171.653778,162.329195 171.911615,164.304585 172.31784,168.476517 C172.933353,174.797839 174.260078,181.513161 176.324535,188.749278 C178.682621,200.868409 180.104602,210.102221 180.596778,216.449978 C181.001137,221.665136 181.107068,223.807119 181.235111,226.395484 C181.339654,228.508794 181.459023,230.921769 181.770112,235.57713 C182.100296,240.518251 182.368662,244.013135 182.608701,247.139241 C182.871593,250.562977 183.100597,253.545973 183.33951,257.493437 C183.645186,262.544003 183.88,268.859974 184.043498,276.441371 L184.043498,308.052144 C184.043498,314.593667 185.606978,327.212941 187.474745,336.851404 C187.544285,337.210258 187.620992,337.622673 187.706812,338.084197 C188.77908,343.850634 191.298726,357.495551 199.375726,369.839423 C207.858545,382.803497 222.684888,394.34489 227.432665,396.42531 C236.978262,400.608078 243.518257,401.384213 248.289972,401.494384 C252.975991,401.602575 261.12065,400.201787 265.32247,397.854596 C265.635908,397.679506 266.113954,397.447066 266.729257,397.149958 C270.712798,395.226447 280.957028,390.302453 288.158103,379.150244 C295.127291,368.357156 298.458347,349.34886 298.709622,345.96109 C298.855081,343.99996 299.073566,341.64626 299.310852,339.091323 C299.984208,331.841092 300.817105,322.947985 300.51704,316.90452 C300.361219,313.766204 300.323541,311.96306 300.287944,310.25794 C300.230391,307.501135 300.177892,305.003797 299.627981,297.405398 C299.0157,288.945191 298.615015,281.921583 298.247893,275.485671 C298.080446,272.550211 297.919992,269.737235 297.749557,266.9659 C297.320233,259.984929 297.899315,243.410394 298.370785,230.016679 C298.498311,226.393868 298.617613,223.00487 298.706212,220.104843 C298.856619,215.18177 298.895754,211.732398 298.929343,208.77462 C298.9887,203.547725 299.031071,199.842642 299.628798,192.333537 C300.380612,182.88867 300.927372,179.832827 301.862072,174.604677 C302.09448,173.304728 302.351175,171.869 302.641465,170.162959 C304.076557,161.728884 304.079925,161.70673 305.378427,153.170832 C306.085079,148.525578 306.315945,146.446701 306.582727,144.044146 C306.806219,142.031443 307.054661,139.794123 307.622227,135.670789 C308.139538,131.912557 308.538937,129.712624 308.892553,127.765235 C309.388088,125.036287 309.791514,122.813291 310.309511,117.355465 C310.423426,116.15522 310.527789,115.076151 310.623183,114.089822 C311.2682,107.42065 311.5,105.033056 311.5,97.9639602 C311.5,89.8691092 311.073885,79.7345777 309.030491,69.3515041 C308.476901,66.5385511 308.091021,64.4433817 307.770379,62.702353 C306.903888,57.9974522 306.519981,55.9135222 304.541299,49.0803118 C301.966035,40.1868538 301.193972,38.3872573 298.31677,31.6808163 C298.172581,31.344727 298.02316,30.9964422 297.868024,30.6344828 C294.681777,23.2003741 289.855094,16.2157493 285.610201,12.4356266 C283.765043,10.7924942 277.834559,6.19954275 270.875048,3.6846072 C268.891272,2.96773682 262.379286,1.53858633 255.705092,1.4999749 Z" id="OUTLINE" stroke="#F0AD4E" stroke-width="3" transform="translate(241.000000, 201.500000) scale(-1, 1) translate(-241.000000, -201.500000) "></path>
    </g>
</svg>