<?xml version="1.0" encoding="UTF-8"?>
<svg width="161px" height="417px" viewBox="0 0 161 417" version="1.1" xmlns="http://www.w3.org/2000/svg" xmlns:xlink="http://www.w3.org/1999/xlink">
    <title>upper_area_shoe</title>
    <g id="upper_area_shoe" stroke="none" stroke-width="1" fill="none" fill-rule="evenodd">
        <path d="M94.7123232,6.24999582 C90.1010594,6.22793941 85.2959692,7.179332 82.3834934,7.75518381 C81.9448319,7.84191553 81.5488548,7.92020365 81.2026096,7.98550946 C75.1425931,9.12849795 72.0861389,10.4391613 67.4429431,12.9668239 C63.7835562,14.9589205 61.7330732,16.7941905 59.8261155,18.4999848 C59.3105415,18.9611714 58.8053741,19.4130083 58.2822527,19.8560974 C55.398778,22.2984289 53.4559903,24.7573114 51.7303137,26.9398379 C51.3465273,27.4252267 50.9734354,27.8970763 50.603221,28.3522366 C46.1559302,33.8199608 45.3670567,35.1362083 42.5158832,39.8933932 C42.0394365,40.6883448 41.5055646,41.5791096 40.8877249,42.6009157 C38.0070695,47.3650507 34.5809657,53.5795172 30.6092107,61.2441997 C25.042682,72.2579554 21.5287506,79.5291742 20.0692619,83.0559049 C15.2959686,94.5901637 13.2282103,103.938127 12.411113,108.421294 C10.6226368,118.234125 8.84708269,128.741512 8.53936957,138.882076 C8.51230969,139.773824 8.48647941,140.607581 8.46218093,141.391894 C8.21014475,149.527183 8.12291055,152.335884 8.53904969,159.38168 C8.79813505,163.768344 8.95599024,164.978802 9.21556408,166.968034 C9.41323464,168.482874 9.66964998,170.447812 10.0737241,174.597658 C10.6960271,180.988716 12.0358277,187.778459 14.0975456,194.988021 C16.4435513,207.045065 17.8608589,216.231302 18.3505181,222.546607 C18.7534594,227.743481 18.8590439,229.877954 18.9866378,232.457244 C19.091426,234.575522 19.2110737,236.99417 19.5228934,241.660474 C19.8534303,246.606875 20.1220745,250.105494 20.3623698,253.234941 C20.6247498,256.652003 20.8533455,259.629182 21.0917929,263.568953 C21.3964683,268.602982 21.6303758,274.897381 21.7934401,282.452156 L21.7934983,314.052144 C21.7934983,320.647446 23.3643841,333.371158 25.247574,343.089208 C25.31659,343.44536 25.3927043,343.85467 25.4778781,344.312717 C26.5658152,350.163419 29.136106,364.001709 37.3297471,376.523841 C45.9719554,389.731507 61.0969368,401.451996 65.9309802,403.570217 C75.6928674,407.847761 82.3821508,408.631404 87.2611197,408.744051 C92.1258059,408.856367 100.572874,407.380978 104.932072,404.945873 C105.230679,404.779067 105.686627,404.558638 106.27279,404.275601 C110.353263,402.305285 120.834356,397.2481 128.208212,385.828308 C135.300524,374.84454 138.700448,355.501658 138.956198,352.05355 C139.101167,350.099022 139.319009,347.753253 139.555496,345.206918 C140.23425,337.898561 141.067961,328.934223 140.765502,322.842532 C140.610523,319.721167 140.573077,317.927761 140.537672,316.23185 C140.479832,313.461292 140.427375,310.951483 139.87472,303.315169 C139.262971,294.862312 138.862667,287.844804 138.495864,281.414484 C138.328309,278.477114 138.167746,275.662308 137.9972,272.889171 C137.569277,265.930981 138.150084,249.410534 138.620011,236.060653 C138.747611,232.435721 138.866978,229.044739 138.955629,226.143015 C139.106354,221.209522 139.145602,217.752852 139.179262,214.788815 C139.238313,209.588946 139.28022,205.903009 139.874857,198.432723 C140.621545,189.052246 141.164232,186.017184 142.092562,180.824666 C142.325509,179.521701 142.58279,178.082639 142.873753,176.372638 C144.310677,167.927798 144.314051,167.905615 145.61421,159.358822 C146.324736,154.688103 146.556847,152.597826 146.825091,150.182099 C147.047716,148.177209 147.295187,145.948571 147.860551,141.841241 C148.374402,138.108141 148.77119,135.92293 149.122441,133.988564 C149.622986,131.232026 150.030684,128.986583 150.553919,123.473571 C150.667756,122.274145 150.772048,121.195812 150.867377,120.210156 C151.517208,113.491217 151.75,111.085776 151.75,103.96396 C151.75,95.8006747 151.317597,85.5807971 149.256966,75.1101334 C148.704622,72.3035139 148.319625,70.2130594 147.999705,68.4759507 C147.125501,63.7291719 146.738269,61.6266713 144.741974,54.7326342 C142.145225,45.7649811 141.36672,43.9503717 138.465515,37.1879812 C138.321382,36.8520235 138.172019,36.5038752 138.016944,36.1420575 C134.751175,28.5224075 129.79087,21.3752764 125.441501,17.5021171 C123.545418,15.8136351 117.451551,11.0933905 110.299869,8.50901084 C108.261475,7.77240296 101.572393,6.28968258 94.7123232,6.24999582 Z" id="OUTLINE" stroke="#808080" stroke-width="0.5"></path>
        <path d="M84.6305806,105.026339 C89.3746142,105.63088 95.1753028,109.625613 99.1555601,112.773436 C103.135817,115.921258 106.636508,120.016258 108.407195,123.945211 C108.753134,124.712811 110.114864,127.488207 111.133624,132.342551 C113.591207,144.052822 118.03006,171.080628 123.700035,203.182088 C129.370009,235.283549 130.299173,256.065382 132.013211,267.933047 C132.752042,273.048567 133.8678,288.490761 135.532715,307.806661 C136.501796,319.04967 136.24637,332.577193 132.013211,348.076693 C130.326257,354.253389 124.875559,366.627456 116.083605,370.807606 C102.813459,377.116918 87.7935524,374.530624 84.6305806,374.178081 C79.3599711,373.590623 73.8310562,371.829764 71.2892573,370.807606 C68.7004779,369.766555 64.2097107,367.397523 60.5823504,364.290001 C57.0947922,361.302245 54.4560651,357.59989 52.5907656,355.302615 C51.0017526,353.34561 46.5414396,347.866182 43.0092594,337.799541 C40.9021918,331.794442 38.7892834,325.21198 37.5505487,314.923084 C36.3118141,304.634189 37.5505487,292.828659 37.5505487,277.039969 C37.5505487,261.251279 37.0627536,218.466463 37.5505487,198.390211 C38.0383439,178.31396 37.8413347,170.826508 40.4252971,158.723556 C43.0092594,146.620603 48.3860553,134.432032 52.5907656,128.022161 C56.7954759,121.612289 63.3337711,115.904657 68.041789,112.292621 C75.8967147,106.266248 82.6531231,104.774348 84.6305806,105.026339 Z" id="OUTLINE" stroke="#808080" stroke-width="0.5"></path>
        <path d="M110,129 C93.9036151,132.561804 81.8591305,136.112493 73.8665462,139.652066 C65.8739619,143.191639 54.5851132,149.974284 40,160" id="OUTLINE" stroke="#808080" stroke-width="0.5"></path>
        <path d="M124,203 C103.216145,206.987518 87.6064049,211.987456 77.1707783,217.999813 C71.1246476,221.483217 58.4144921,228.406512 50.6085561,235.584783 C46.8304787,239.05907 42.6276266,242.864142 38,247" id="OUTLINE" stroke="#808080" stroke-width="0.5"></path>
        <path d="M37,287.305064 C37.480029,283.687111 39.0844937,280.770243 41.8133941,278.554457 C46.0880436,275.083571 54.1093807,275.083571 58.559556,275.083571 C62.3410885,275.083571 74.9322475,274.749153 84.7111973,275.418258 C94.490147,276.087362 99.1430474,276.087362 111.609371,277.647014 C118.459531,278.504032 126.000614,279.873927 129.414578,283.343639 C131.673665,285.639615 133.202139,288.191736 134,291" id="OUTLINE" stroke="#808080" stroke-width="0.5"></path>
        <circle id="TOP_LIGHT" fill="#BBBBBB" cx="85" cy="96" r="2"></circle>
        <circle id="TOP_EXT_LIGHT" stroke="#808080" fill="#BBBBBB" cx="47" cy="122" r="2"></circle>
        <circle id="EXT_LIGHT" fill="#BBBBBB" cx="31" cy="160" r="2"></circle>
        <circle id="TOP_INT_LIGHT" stroke="#808080" fill="#BBBBBB" cx="114" cy="116" r="2"></circle>
        <circle id="INT_LIGHT" fill="#BBBBBB" cx="123" cy="147" r="2"></circle>
        <path d="M52,26.5954699 L71.7663919,109 C74.4080059,107.466938 76.3134423,106.454861 77.4827009,105.96377 C79.4858726,105.122432 81.1688409,104.64026 82.9651457,104.517735 C86.334215,104.287931 90.2445632,105.78202 94.6961904,109 L129,21.1181114 C125.575742,17.5350665 122.96995,15.1092263 121.182625,13.8405908 C117.27804,11.0691346 112.795953,9.47851976 110.589924,8.57893837 C100.7255,4.55639414 92.6067636,6.33345364 86.7237259,6.75194074 C80.784059,7.17445613 71.9655069,9.61597576 64.060875,14.9939009 C61.1580078,16.9688698 57.1377161,20.8360595 52,26.5954699 Z" id="TOP_AREA"></path>
        <path d="M95,109.622931 L129.170015,22 C132.578769,26.5729636 134.924224,30.2033178 136.206379,32.8910624 C142.438362,45.9549836 145.840974,58.7868287 147.697376,67.8303267 C149.131074,74.8146121 151.602993,84.0840001 151.969078,96.1831056 C152.138559,101.784429 151.611351,111.510451 150.387456,125.361173 L111.692691,134 C110.427347,129.222621 109.43724,125.991049 108.72237,124.305285 C107.628949,121.726841 106.179194,120.171569 105.202192,118.74481 C103.267057,115.918847 99.8663259,112.87822 95,109.622931 Z" id="TOP_INT_AREA"></path>
        <path d="M112,133.701008 L151,125 C148.812509,139.990753 147.133209,151.292806 145.962101,158.906157 C144.790992,166.519509 143.358747,174.813782 141.665366,183.788976 L120.720504,185 L112,133.701008 Z" id="INT_AREA"></path>
        <path d="M72,109.116544 L52.2431712,27 C48.6111536,31.6116027 45.8835059,35.32244 44.0602282,38.132512 C36.8928385,49.1790356 30.4712418,61.4356261 26.0297265,71.4070523 C22.9168407,78.3956382 19.3159293,85.5267021 16.782782,93.6916996 C15.1425568,98.9785751 13.2149628,107.612343 11,119.593003 L44.8126317,144 C48.6856011,134.415459 52.192627,127.608066 55.3337092,123.577819 C58.4747915,119.547572 64.0302218,114.727147 72,109.116544 Z" id="TOP_EXT_AREA"></path>
        <path d="M45,144.364194 L11.1435125,120 C9.18904664,133.928433 8.5711499,146.307059 9.28982225,157.135877 C9.68376976,163.071803 10.0145114,170.638717 11.4779332,179.655092 C12.063229,183.261193 13.5360764,188.435374 15.1434316,195.742677 C15.544176,197.564528 16.091258,200.650302 16.7846775,205 L37.9728057,205 C37.9847577,187.880227 38.3947631,175.582043 39.2028219,168.105449 C40.0108807,160.628854 41.9432734,152.715103 45,144.364194 Z" id="EXT_AREA"></path>
    </g>
</svg>